<svg width="78" height="53" viewBox="0 0 78 53" fill="none" xmlns="http://www.w3.org/2000/svg">
<path d="M9.49623 13.5264C9.56188 13.6453 9.59861 13.7259 9.60641 13.7682C9.64238 13.8052 9.70624 13.8554 9.79801 13.9185C9.88978 13.9817 9.95679 14.0094 9.99904 14.0016C10.161 13.9717 10.2574 13.9612 10.2882 13.9701C10.3035 13.9745 10.3154 13.9796 10.3238 13.9853C10.3391 13.9898 10.3545 13.9942 10.3699 13.9987C10.3985 14.1536 10.4211 14.2368 10.4378 14.2483C10.4629 14.2655 10.4808 14.2841 10.4918 14.3039C10.5061 14.3814 10.5102 14.4825 10.5041 14.6075C10.491 14.7337 10.4625 14.8555 10.4186 14.9728L10.2698 15.3498C10.2201 15.4755 10.1657 15.5948 10.1064 15.7077L9.93917 16.0444C9.89008 16.1336 9.85833 16.2378 9.84392 16.357C9.82691 16.462 9.77273 16.5631 9.68139 16.66C9.5958 16.7487 9.5102 16.8373 9.4246 16.9259C9.33901 17.0145 9.26175 17.1089 9.19284 17.209L8.99781 17.5727C8.98264 17.6483 8.95495 17.7154 8.91476 17.7738C8.88604 17.8155 8.85706 17.8754 8.8278 17.9537C8.77113 18.0806 8.72763 18.2197 8.69729 18.371C8.66564 18.5152 8.59137 18.6454 8.47446 18.7617C8.33208 19.1739 8.16652 19.5395 7.97777 19.8583C7.76735 20.2176 7.5864 20.5787 7.43492 20.9417C7.61358 20.9233 7.77139 20.8905 7.90834 20.8434C7.98321 20.815 8.06577 20.7888 8.15602 20.7649C8.24627 20.7409 8.34005 20.7163 8.43734 20.6911C8.85469 20.5849 9.24517 20.491 9.60878 20.4093C9.97239 20.3277 10.3373 20.253 10.7035 20.1854C10.8318 20.2491 10.8865 20.3483 10.8676 20.4828C10.7972 20.4958 10.7476 20.5232 10.7189 20.5649C10.6902 20.6066 10.6381 20.6199 10.5624 20.6047C10.5055 20.6516 10.4768 20.6933 10.4763 20.7298C10.4757 20.7664 10.4611 20.8055 10.4324 20.8472C10.3934 21.1093 10.2308 21.274 9.94467 21.3414C9.80512 21.3744 9.66909 21.4068 9.53659 21.4386C9.40408 21.4703 9.27926 21.5043 9.16214 21.5404C9.01555 21.5748 8.93651 21.6003 8.92502 21.617C8.91928 21.6253 8.90937 21.6308 8.89528 21.6334L8.14168 21.8708C8.01047 21.9096 7.88344 21.9512 7.76057 21.9958C7.63641 22.0333 7.51224 22.0707 7.38807 22.1082C7.32101 22.1789 7.24327 22.2114 7.15486 22.2059C7.05236 22.203 6.97203 22.2214 6.91384 22.2613C6.87104 22.3056 6.84937 22.346 6.84883 22.3825C6.84959 22.4261 6.83626 22.4722 6.80885 22.521C6.75976 22.6102 6.71328 22.7134 6.6694 22.8308C6.62551 22.9481 6.57903 23.0513 6.52994 23.1405C6.42083 23.299 6.32527 23.4914 6.24324 23.7178C6.18896 23.7788 6.15228 23.8365 6.13321 23.891C6.1097 23.9609 6.08136 24.0244 6.04821 24.0815C5.88579 24.4246 5.6978 24.787 5.48423 25.1687C5.46072 25.2386 5.43369 25.3091 5.40313 25.3803C5.37962 25.4502 5.35545 25.5165 5.33064 25.5794L5.15982 26.0151C5.10521 26.1927 5.06728 26.3817 5.04604 26.5823C5.02014 26.7181 4.99191 26.8216 4.96135 26.8928C4.93968 26.9332 4.92283 26.98 4.91081 27.0332C4.90452 27.0781 4.89888 27.1265 4.8939 27.1784C4.84427 27.3041 4.79595 27.4368 4.74892 27.5765C4.70189 27.7163 4.65617 27.8631 4.61174 28.017C4.48063 28.3325 4.34221 28.6675 4.19647 29.0221C4.05073 29.3767 3.91751 29.74 3.7968 30.1118C3.77643 30.1592 3.75606 30.2067 3.73569 30.2542C3.72236 30.3003 3.70968 30.35 3.69766 30.4032C3.6723 30.5025 3.63091 30.5939 3.57348 30.6773C3.54163 30.7415 3.50365 30.7922 3.45955 30.8295C3.43398 30.8487 3.41193 30.8674 3.3934 30.8854C3.37488 30.9033 3.35635 30.9213 3.33782 30.9393C3.24074 31.0446 3.12383 31.1609 2.9871 31.2881C2.85036 31.4153 2.73215 31.5245 2.63247 31.6157C2.48793 31.7006 2.3953 31.7906 2.35455 31.8855C2.31381 31.9804 2.28846 32.0797 2.27849 32.1835C2.08541 32.3211 1.93752 32.3484 1.83481 32.2654C1.7321 32.1824 1.67999 32.0974 1.67848 32.0103C1.66808 31.9539 1.69251 31.8693 1.75178 31.7564C1.77789 31.7006 1.80113 31.649 1.82151 31.6015C1.84318 31.5611 1.85845 31.5255 1.86734 31.4948L2.02012 31.1388C2.04157 31.0184 2.05897 30.935 2.0723 30.8889C2.08562 30.8427 2.10247 30.7959 2.12284 30.7485L2.17339 30.6081C2.18802 30.569 2.19078 30.5247 2.18168 30.4754C2.23781 30.385 2.2779 30.2866 2.30196 30.1802C2.31399 30.127 2.32666 30.0773 2.33999 30.0311C2.35906 29.9766 2.37813 29.9221 2.3972 29.8676C2.49483 29.7258 2.56872 29.5738 2.61889 29.4116C2.66906 29.2494 2.7487 29.0891 2.85781 28.9306C2.87038 28.8409 2.8926 28.7639 2.92445 28.6998C2.95631 28.6357 2.99521 28.5702 3.04115 28.5035C3.09002 28.3342 3.15102 28.1519 3.22416 27.9563C3.28712 27.7845 3.31475 27.5791 3.30707 27.3402C3.31737 27.1198 3.35659 26.9378 3.42475 26.7941C3.48272 26.6742 3.53809 26.5402 3.59086 26.3921C3.60083 26.2883 3.6121 26.1915 3.62467 26.1018C3.63724 26.0121 3.67224 25.9255 3.72966 25.8421C3.78818 25.6857 3.8352 25.5459 3.87074 25.4228C3.90629 25.2997 3.94627 25.1613 3.9907 25.0074C4.02733 24.8113 4.09656 24.5946 4.19842 24.3574C4.2086 24.3336 4.21879 24.3099 4.22897 24.2862C4.23916 24.2625 4.24999 24.2422 4.26148 24.2256C4.27296 24.2089 4.2838 24.1887 4.29398 24.1649C4.30287 24.1342 4.31176 24.1034 4.32064 24.0726C4.36452 23.9553 4.3934 23.8553 4.40727 23.7726C4.42114 23.69 4.45002 23.59 4.49391 23.4726C4.51742 23.4027 4.55215 23.3344 4.59809 23.2677C4.63829 23.2093 4.64799 23.1238 4.62719 23.0111C4.50226 23.005 4.39218 23.0399 4.29695 23.1157C4.21374 23.1384 4.12413 23.1658 4.02814 23.1981C3.93919 23.2291 3.83967 23.262 3.72959 23.2969C3.4896 23.3776 3.27101 23.4362 3.07382 23.4726C3.0034 23.4856 2.92306 23.504 2.83281 23.528C2.74255 23.5519 2.65647 23.5787 2.57456 23.6084L2.38084 23.7425C2.31561 23.7837 2.24194 23.7791 2.15981 23.7287C2.09622 23.6603 2.04903 23.6217 2.01826 23.6128C1.98749 23.6039 1.96664 23.5895 1.9557 23.5697C1.84259 23.4304 1.74432 23.332 1.6609 23.2746C1.64291 23.2561 1.61816 23.2206 1.58663 23.1681C1.57309 23.1342 1.53555 23.1084 1.47401 23.0906C1.42395 23.0561 1.3674 22.9865 1.30435 22.8816C1.4114 22.6725 1.58465 22.5458 1.82409 22.5016C2.12096 22.374 2.41626 22.2576 2.70999 22.1524C3.01076 22.0459 3.30996 21.9507 3.60759 21.8666C3.90522 21.7825 4.19867 21.6956 4.48796 21.6058C4.78428 21.5147 5.07644 21.4207 5.36443 21.3238C5.40722 21.2795 5.43177 21.2349 5.43805 21.1901C5.44878 21.1298 5.46498 21.0795 5.48665 21.0391C5.51406 20.9904 5.54148 20.9416 5.56889 20.8928C5.60334 20.8428 5.63493 20.7969 5.66364 20.7552C5.72681 20.6634 5.76912 20.5573 5.79058 20.4368C5.84746 20.3899 5.87618 20.3482 5.87672 20.3117C5.87726 20.2752 5.89893 20.2348 5.94173 20.1905C5.98377 20.1026 6.00376 20.0334 6.00171 19.9828C6.00409 19.9168 6.0139 19.8713 6.03113 19.8462C6.15985 19.5967 6.23754 19.4258 6.26419 19.3335C6.30234 19.2245 6.34817 19.1177 6.4017 19.0132C6.42781 18.9574 6.45457 18.9051 6.48199 18.8564C6.5081 18.8006 6.53551 18.7518 6.56422 18.7101C6.59294 18.6684 6.621 18.6232 6.64841 18.5744C6.67583 18.5256 6.70324 18.4769 6.73065 18.4281C6.75232 18.3877 6.77112 18.3515 6.78705 18.3194C6.81002 18.286 6.82947 18.2533 6.8454 18.2213L6.94291 18.0394C7.0205 17.8285 7.13069 17.5969 7.2735 17.3448C7.39594 17.1402 7.48631 16.9196 7.5446 16.683C7.62781 16.6604 7.67348 16.6119 7.68161 16.5376C7.69234 16.4774 7.72132 16.4174 7.76856 16.3577C7.80909 16.1827 7.86565 16.0157 7.93825 15.8567C8.01085 15.6976 8.06741 15.5306 8.10794 15.3556C8.02787 15.3558 7.94596 15.3855 7.86221 15.4447C7.77845 15.5038 7.67671 15.5444 7.55699 15.5665C7.48917 15.5936 7.42838 15.6194 7.37464 15.6439C7.3209 15.6684 7.27421 15.6916 7.23455 15.7135C7.1949 15.7353 7.15172 15.7579 7.10502 15.7811C7.05832 15.8042 7.00811 15.8281 6.95437 15.8526C6.74829 15.9197 6.53815 16.0241 6.32395 16.1655C6.22037 16.2356 6.11614 16.3022 6.01126 16.3653C5.90508 16.4213 5.80177 16.4731 5.70133 16.5208C5.43891 16.5984 5.18354 16.6746 4.93521 16.7496C4.68688 16.8246 4.44559 16.8982 4.21135 16.9706C3.9771 17.043 3.73934 17.116 3.49805 17.1896C3.2625 17.255 3.02344 17.3209 2.78085 17.3876C2.72581 17.405 2.67077 17.4224 2.61573 17.4399C2.56069 17.4573 2.50565 17.4748 2.45061 17.4922C2.39557 17.5097 2.34053 17.5271 2.28549 17.5445C2.22915 17.5549 2.17281 17.5653 2.11647 17.5757C1.89111 17.6173 1.66965 17.6801 1.45209 17.7639C1.37906 17.7628 1.31568 17.7745 1.26194 17.799C1.21394 17.8151 1.15056 17.8268 1.07179 17.8341C0.892374 17.809 0.778937 17.7862 0.731483 17.7658C0.69107 17.7442 0.632131 17.7405 0.554663 17.7548C0.476439 17.7255 0.428984 17.7051 0.4123 17.6937C0.37893 17.6707 0.34816 17.6618 0.31999 17.667C0.197997 17.5584 0.126708 17.4879 0.106124 17.4552C0.0855391 17.4226 0.119345 17.3691 0.20754 17.2945C0.237882 17.1433 0.338485 17.0373 0.509347 16.9766C0.673168 16.9173 0.809739 16.8484 0.919063 16.7699C1.01376 16.7306 1.10845 16.6913 1.20315 16.652C1.29784 16.6126 1.38967 16.5775 1.47862 16.5465C1.57462 16.5142 1.66996 16.4784 1.76466 16.4391C1.85935 16.3997 1.95757 16.3598 2.0593 16.3191C2.16549 16.2631 2.25953 16.2203 2.34144 16.1906C2.42909 16.1526 2.50396 16.1242 2.56604 16.1054C2.68447 16.0763 2.79834 16.0225 2.90766 15.9441C3.11634 15.891 3.3112 15.8223 3.49225 15.7379C3.58564 15.6915 3.67617 15.6493 3.76382 15.6113C3.85851 15.5719 3.95321 15.5326 4.0479 15.4933C4.07922 15.4657 4.13583 15.437 4.21774 15.4073C4.28556 15.3802 4.33383 15.3458 4.36255 15.3041C4.51748 15.2755 4.59235 15.2472 4.58715 15.219C4.93332 15.0823 5.27179 14.9433 5.60258 14.8022C5.9391 14.6527 6.26794 14.5009 6.58908 14.347C7.23136 14.0391 7.91925 13.781 8.65276 13.5728C8.95613 13.4804 9.23728 13.4649 9.49623 13.5264Z" fill="white"/>
<path d="M15.7027 26.3193C15.7447 26.2315 15.7772 26.1709 15.8002 26.1375C15.8289 26.0958 15.8653 26.0563 15.9094 26.019C16.0166 25.6133 16.1909 25.2752 16.4323 25.0049C16.6807 24.7333 16.9416 24.4303 17.2148 24.0958C17.2853 24.0828 17.3406 24.0471 17.3808 23.9887C17.421 23.9303 17.4737 23.8806 17.5389 23.8394C17.6091 23.7463 17.6784 23.668 17.7468 23.6044C17.8023 23.5504 17.8448 23.4843 17.874 23.4061C18.0217 23.2988 18.1536 23.1652 18.2698 23.0054C18.393 22.8443 18.5152 22.6979 18.6366 22.5663C18.7441 22.5173 18.8664 22.5093 19.0036 22.5422C19.0807 22.6445 19.1239 22.7603 19.1332 22.8897C19.1425 23.019 19.0851 23.1025 18.961 23.14C18.9265 23.19 18.8885 23.2407 18.847 23.2921C18.8055 23.3434 18.7509 23.3826 18.683 23.4097C18.5474 23.4639 18.4662 23.5371 18.4396 23.6294C18.4572 23.7645 18.4546 23.8488 18.4316 23.8822C18.4086 23.9155 18.3956 23.9434 18.3924 23.9659C18.2856 24.255 18.1547 24.5122 17.9996 24.7375C17.8433 24.9557 17.7053 25.2142 17.5856 25.513C17.5173 25.5766 17.4682 25.6658 17.4384 25.7805C17.2109 25.9681 17.0444 26.1118 16.939 26.2113C16.8335 26.3109 16.7419 26.4261 16.6641 26.557C16.5887 26.6219 16.5543 26.6719 16.5608 26.7071C16.566 26.7353 16.5571 26.7661 16.5341 26.7995C16.4154 26.9452 16.3506 27.0482 16.3399 27.1084C16.3292 27.1686 16.3059 27.2203 16.2702 27.2633C16.2088 27.3256 16.1546 27.3866 16.1073 27.4463C16.0658 27.4976 16.0307 27.5442 16.002 27.5859C15.9331 27.686 15.8526 27.7627 15.7605 27.8161C15.659 27.9368 15.5043 28.0855 15.2966 28.2622C15.0902 28.446 14.8703 28.5958 14.6368 28.7117C14.4046 28.8347 14.201 28.8759 14.0261 28.8354L13.8567 28.7465C13.8246 28.7306 13.7695 28.708 13.6913 28.6787C13.5789 28.5829 13.4593 28.5067 13.3323 28.45C13.2207 28.3978 13.1068 28.3132 12.9905 28.1963C12.8576 28.0679 12.7627 27.9289 12.706 27.7791C12.6479 27.6224 12.5658 27.4737 12.4598 27.333C12.357 26.9733 12.3292 26.6653 12.3766 26.4089C12.4099 26.1552 12.4534 25.9178 12.5073 25.6966C12.5598 25.4685 12.6262 25.2559 12.7064 25.0591C12.8623 24.6807 12.9396 24.2514 12.9383 23.771C12.7548 23.6446 12.6401 23.5165 12.5943 23.3866C12.5743 23.3175 12.5452 23.2391 12.5072 23.1514C12.4692 23.0638 12.425 22.9627 12.3748 22.8482C12.0527 23.1552 11.7706 23.5204 11.5283 23.9438C11.286 24.3672 11.0803 24.7912 10.911 25.2157L10.7433 25.7273C10.6976 25.8741 10.6365 26.0165 10.56 26.1544C10.5025 26.2378 10.4758 26.2901 10.4797 26.3112C10.4836 26.3323 10.474 26.3596 10.4511 26.393C10.4077 26.4738 10.373 26.5421 10.3469 26.5979C10.3208 26.6537 10.3033 26.697 10.2944 26.7277C10.2855 26.7585 10.2766 26.7893 10.2677 26.82C10.2575 26.8438 10.2474 26.8675 10.2372 26.8912C10.2053 26.9554 10.1779 27.0041 10.1549 27.0375C10.132 27.0709 10.1046 27.1196 10.0727 27.1838C9.92751 27.5018 9.79667 27.7991 9.68019 28.0755L9.32213 28.9171C9.26676 29.0512 9.22548 29.1826 9.19828 29.3114C9.17238 29.4473 9.12275 29.573 9.0494 29.6884C8.91115 29.7285 8.82626 29.7224 8.79473 29.6699C8.76321 29.6175 8.75763 29.5675 8.778 29.5201C8.58818 29.4386 8.45281 29.2378 8.37189 28.9178C8.29097 28.5977 8.27456 28.3313 8.32267 28.1185C8.25702 27.9995 8.22994 27.9317 8.24142 27.915C8.25291 27.8983 8.25605 27.8759 8.25085 27.8477C8.38716 27.5604 8.52699 27.2724 8.67034 26.9838C8.81369 26.6952 8.9702 26.4187 9.13988 26.1543C9.16599 26.0985 9.19211 26.0427 9.21822 25.9869C9.24433 25.9311 9.26693 25.876 9.286 25.8215C9.33692 25.7029 9.39397 25.5977 9.45714 25.5059C9.53916 25.2796 9.64454 25.0416 9.77326 24.7921C9.90328 24.5497 10.0003 24.306 10.0644 24.0611C10.1275 23.9694 10.166 23.8821 10.1799 23.7995C10.1995 23.7085 10.2464 23.627 10.3205 23.5551C10.3542 23.4614 10.3815 23.3727 10.4024 23.2887C10.4291 23.1964 10.4493 23.1089 10.4632 23.0262C10.4808 22.8846 10.5335 22.7365 10.6215 22.5819C10.6315 22.4781 10.6524 22.3941 10.6843 22.33C10.7161 22.2659 10.7608 22.1921 10.8182 22.1087C10.8135 22.044 10.8412 21.977 10.9012 21.9076C10.9613 21.8383 11.003 21.7687 11.0265 21.6988C11.0436 21.5937 11.0671 21.5238 11.0971 21.4892C11.1328 21.4461 11.1449 21.3929 11.1332 21.3296C11.1906 21.2461 11.2474 21.1592 11.3035 21.0687C11.3596 20.9783 11.4055 20.8715 11.441 20.7484C11.6174 20.5993 11.7443 20.5176 11.8218 20.5033C11.8993 20.489 11.9526 20.4428 11.9819 20.3646C12.0382 20.3542 12.0981 20.3431 12.1615 20.3314C12.2319 20.3184 12.3052 20.3012 12.3813 20.2799C12.5407 20.2359 12.635 20.2731 12.6641 20.3916C12.6764 20.4184 12.6829 20.4536 12.6836 20.4972C12.6805 20.5196 12.6773 20.5421 12.6742 20.5645C12.671 20.5869 12.6679 20.6093 12.6648 20.6318C12.6952 20.7572 12.7076 20.8241 12.7018 20.8325C12.6903 20.8492 12.6852 20.861 12.6865 20.8681C12.6828 20.927 12.6884 20.977 12.7033 21.0179C12.7168 21.0518 12.732 21.1145 12.7489 21.2061C12.7523 21.2637 12.7543 21.3143 12.7551 21.3579C12.7559 21.4014 12.756 21.4415 12.7554 21.478C12.7543 21.551 12.7975 21.6268 12.8848 21.7054C12.9291 21.7482 12.9785 21.7791 13.033 21.7982C13.0875 21.8172 13.1452 21.8539 13.2062 21.9082C13.2479 21.9369 13.2804 21.9746 13.3036 22.0213C13.3268 22.068 13.3592 22.1057 13.4009 22.1344C13.4356 22.1644 13.4843 22.1919 13.5472 22.2167C13.61 22.2415 13.6614 22.283 13.7012 22.3412C13.7891 22.3832 13.8203 22.4139 13.7947 22.4332C13.7762 22.4511 13.8131 22.4735 13.9054 22.5001C14.105 22.6744 14.2651 22.8707 14.3854 23.0888C14.5095 23.2479 14.6129 23.3745 14.6958 23.4684C14.787 23.5681 14.8078 23.6808 14.7582 23.8065C14.7238 23.8565 14.6901 23.9501 14.6571 24.0873C14.6054 24.1624 14.5621 24.2432 14.5271 24.3298C14.508 24.3843 14.4966 24.441 14.493 24.4999C14.495 24.5505 14.4823 24.6002 14.4549 24.6489C14.3659 24.8766 14.2694 25.0837 14.1655 25.2704C14.0615 25.4571 13.9778 25.6546 13.9143 25.8629C13.9955 26.2631 14.1275 26.5445 14.3105 26.7074C14.516 26.8734 14.6398 26.9525 14.682 26.9447C14.7762 26.9419 14.8696 26.8955 14.9622 26.8056L15.2057 26.5859C15.2313 26.5666 15.2533 26.5479 15.2718 26.53C15.2974 26.5107 15.3195 26.492 15.338 26.4741C15.375 26.4381 15.4204 26.4079 15.4742 26.3834C15.613 26.3068 15.6801 26.2762 15.6757 26.2916C15.6726 26.314 15.6816 26.3232 15.7027 26.3193Z" fill="white"/>
<path d="M27.4757 19.5583C27.5474 19.5524 27.5984 19.5721 27.6287 19.6175C27.6576 19.6559 27.7002 19.6698 27.7566 19.6594C27.8094 19.7881 27.7988 19.8883 27.7247 19.9603C27.6493 20.0252 27.6361 20.1113 27.685 20.2188C27.5739 20.3267 27.4287 20.4082 27.2495 20.4631C27.0632 20.5193 26.936 20.6192 26.8679 20.7629C26.6435 20.9281 26.4001 21.0495 26.1377 21.1271C26.0065 21.1659 25.8695 21.213 25.7268 21.2685C25.5899 21.3156 25.45 21.3669 25.3073 21.4224C25.1719 21.5566 25.0872 21.6305 25.0533 21.644C25.0053 21.6602 24.9564 21.691 24.9066 21.7367C24.7483 21.7076 24.5952 21.7067 24.4473 21.734C24.2994 21.7613 24.1406 21.7688 23.9708 21.7564C23.8985 21.7989 23.8201 21.828 23.7356 21.8435C23.6511 21.8591 23.5727 21.8882 23.5005 21.9307C23.4675 22.0678 23.4627 22.1998 23.4861 22.3265C23.5108 22.4604 23.5131 22.591 23.4929 22.7185L23.413 22.9955L23.4183 23.202C23.4198 23.2891 23.4146 23.3593 23.4026 23.4125C23.3822 23.4599 23.3596 23.5151 23.3348 23.5779C23.31 23.6408 23.3041 23.7074 23.3171 23.7778C23.2419 23.9228 23.1955 24.0661 23.1779 24.2077C23.1643 24.3704 23.1096 24.508 23.0138 24.6203C22.9988 24.776 22.9527 24.901 22.8755 24.9954C22.7995 25.0968 22.7297 25.2116 22.666 25.3399C22.55 25.5798 22.4465 25.7883 22.3554 25.9653C22.2642 26.1423 22.1305 26.3054 21.9541 26.4545C21.9045 26.5801 21.8343 26.6732 21.7435 26.7337C21.686 26.8171 21.6427 26.8979 21.6134 26.9761L21.2377 27.3076C21.0882 27.4445 20.9392 27.5448 20.7908 27.6086C20.5617 27.7092 20.328 27.745 20.0896 27.7162C19.8513 27.6874 19.6218 27.6278 19.4012 27.5374C19.27 27.5762 19.1634 27.5704 19.0812 27.52C19.0004 27.4766 18.8969 27.4484 18.7707 27.4353C18.5897 27.3231 18.3973 27.2275 18.1934 27.1486C17.9812 27.064 17.8188 26.9337 17.7062 26.7579L17.5253 26.3106C17.4712 26.175 17.4135 26.04 17.3523 25.9056C17.302 25.7911 17.2738 25.658 17.2676 25.5062C17.2653 25.3755 17.2428 25.234 17.2002 25.0817C17.1859 25.0042 17.1729 24.9338 17.1612 24.8704C17.1482 24.8 17.1336 24.7408 17.1175 24.6928C17.0909 24.5884 17.0986 24.4523 17.1404 24.2843C17.1657 24.185 17.1854 24.094 17.1992 24.0113C17.2131 23.9287 17.2219 23.8578 17.2256 23.7989C17.2292 23.74 17.2336 23.6845 17.2386 23.6327C17.2423 23.5737 17.2472 23.5218 17.2535 23.477C17.2682 23.4378 17.2828 23.3987 17.2974 23.3596C17.3107 23.3135 17.3241 23.2673 17.3374 23.2212C17.3507 23.175 17.3647 23.1324 17.3793 23.0933C17.3997 23.0458 17.4207 23.0019 17.4424 22.9615C17.5035 22.8191 17.5787 22.6741 17.668 22.5266C17.7573 22.379 17.8478 22.2385 17.9397 22.105C17.9977 21.9851 18.0583 21.8792 18.1214 21.7875C18.2248 21.6373 18.325 21.5096 18.4221 21.4042C18.5192 21.2989 18.6251 21.1629 18.74 20.996C18.7604 20.9486 18.7891 20.9068 18.8261 20.8709L18.9373 20.763C19.0626 20.6525 19.1798 20.558 19.2892 20.4795C19.3985 20.4011 19.5241 20.3124 19.6661 20.2134C19.7882 20.1253 19.8902 20.0664 19.9721 20.0367C20.0258 20.0122 20.0802 19.9913 20.1353 19.9738C20.196 19.948 20.2603 19.9216 20.3282 19.8945L20.5817 19.8477C20.6592 19.8334 20.727 19.8063 20.7852 19.7665C20.7221 19.6616 20.7571 19.575 20.8902 19.5068C21.0232 19.4385 21.1263 19.4049 21.1993 19.406C21.3401 19.38 21.4587 19.3909 21.5549 19.4387C21.6511 19.4865 21.7422 19.5461 21.8282 19.6176C21.9873 19.6902 22.1695 19.8095 22.3749 19.9755C22.4166 20.0042 22.4557 20.0189 22.4923 20.0194C22.5288 20.0199 22.5679 20.0346 22.6096 20.0633C22.6815 20.1374 22.7346 20.2077 22.7687 20.2742C22.8054 20.3549 22.8655 20.4239 22.9489 20.4813C22.9964 20.5017 23.0451 20.5291 23.0952 20.5635C23.1452 20.598 23.1838 20.6491 23.2109 20.717C23.3692 20.746 23.5108 20.7636 23.6357 20.7696C23.7043 20.7861 23.7795 20.7795 23.8614 20.7498C23.9363 20.7214 24.0243 20.7052 24.1255 20.7011C24.1902 20.6964 24.2569 20.7023 24.3254 20.7188C24.3857 20.7295 24.451 20.7284 24.5214 20.7154C24.6258 20.6888 24.7368 20.6392 24.8544 20.5665C24.9664 20.5022 25.1024 20.4698 25.2625 20.4693C25.4829 20.4796 25.7008 20.4176 25.9163 20.2831C26.1305 20.1416 26.3548 20.0347 26.589 19.9623C26.6594 19.9493 26.7081 19.9367 26.735 19.9245C26.7618 19.9122 26.8105 19.8996 26.8809 19.8866C26.9409 19.8173 27.0247 19.7581 27.1322 19.7092C27.2396 19.6602 27.3542 19.6099 27.4757 19.5583ZM21.5503 21.3075C21.386 21.2067 21.2901 21.1407 21.2624 21.1094C21.2265 21.0723 21.1973 21.0522 21.1748 21.0491C21.0998 20.9974 21.0228 20.9752 20.9441 20.9824C20.9005 20.9832 20.857 20.9839 20.8134 20.9847C20.7769 20.9842 20.7404 20.9836 20.7039 20.9831C20.4707 20.9824 20.2886 21.0415 20.1576 21.1604C20.0963 21.2227 20.0308 21.2821 19.9612 21.3386C19.8985 21.3939 19.8359 21.4491 19.7733 21.5044C19.5739 21.6868 19.4092 21.8993 19.2792 22.1418C19.2499 22.22 19.2185 22.3059 19.1848 22.3995C19.1511 22.4931 19.1292 22.5918 19.1193 22.6956C19.0837 22.8187 19.0533 22.9299 19.0279 23.0293C19.0026 23.1286 18.9875 23.2443 18.9827 23.3763C18.937 23.5231 18.9162 23.6471 18.9203 23.7483C18.9224 23.7989 18.9238 23.8459 18.9245 23.8895C18.924 23.926 18.9234 23.9625 18.9229 23.999C18.9289 24.0708 18.9319 24.1466 18.9321 24.2267C18.9311 24.2997 18.9306 24.3763 18.9308 24.4564C18.9281 24.6389 18.9352 24.776 18.9521 24.8675C18.974 24.9072 19.0055 24.9596 19.0467 25.0248C19.0879 25.0901 19.1251 25.1342 19.1585 25.1571C19.1997 25.2224 19.2457 25.294 19.2965 25.372C19.3473 25.45 19.3907 25.5075 19.4266 25.5446C19.5223 25.6289 19.6256 25.6754 19.7364 25.684C19.7953 25.6877 19.8585 25.6943 19.9257 25.7037C19.9917 25.7061 20.0619 25.7114 20.1362 25.7195C20.3067 25.7754 20.4189 25.7911 20.4726 25.7666C20.5404 25.7395 20.5814 25.7247 20.5955 25.7221C20.7791 25.6518 20.9268 25.5444 21.0385 25.4C21.1374 25.2652 21.2601 25.1406 21.4065 25.0262C21.4472 24.9313 21.4873 24.8329 21.5267 24.7309C21.5732 24.6277 21.6232 24.5238 21.6767 24.4192C21.729 24.3076 21.7748 24.2009 21.8143 24.0989C21.8594 23.9886 21.9011 23.879 21.9392 23.77C21.9667 23.7212 21.9902 23.6513 22.0098 23.5603C22.0174 23.5225 22.0256 23.4882 22.0345 23.4575C22.0421 23.4196 22.0503 23.3854 22.0592 23.3546C22.1357 23.2167 22.1698 23.1448 22.1614 23.1391C22.1531 23.1333 22.1527 23.1116 22.1603 23.0738C22.2128 22.8456 22.2252 22.6758 22.1974 22.5644C22.1695 22.453 22.1487 22.3404 22.135 22.2264C22.0855 22.1554 22.0388 22.0803 21.995 22.001C21.9513 21.9217 21.9069 21.8388 21.8618 21.7525C21.7703 21.5727 21.6665 21.4244 21.5503 21.3075Z" fill="white"/>
<path d="M27.3625 23.2059C27.4622 23.1147 27.5368 23.0062 27.5864 22.8805C27.6113 22.8177 27.6396 22.7542 27.6715 22.6901C27.7033 22.6259 27.7387 22.5611 27.7776 22.4957C27.9217 22.2506 28.0864 22.0382 28.2717 21.8583C28.343 21.6922 28.4461 21.5603 28.5809 21.4626C28.7145 21.3578 28.8093 21.2202 28.8652 21.0497C28.8811 21.0176 28.898 20.9708 28.9158 20.9092C28.9335 20.8477 28.9504 20.8009 28.9663 20.7688C29.165 20.3462 29.3966 19.983 29.6609 19.6793C29.6967 19.6363 29.7324 19.5933 29.7682 19.5503C29.804 19.5073 29.8362 19.4649 29.8649 19.4232C29.9108 19.3565 29.9929 19.2685 30.1111 19.1593C30.168 19.1124 30.2242 19.0619 30.2798 19.008C30.3341 18.947 30.3842 18.8831 30.4302 18.8164C30.522 18.6829 30.6367 18.5744 30.7742 18.4907C30.858 18.4316 30.9437 18.383 31.0313 18.3449C31.071 18.3231 31.1113 18.3047 31.1523 18.2899C31.1989 18.2667 31.2456 18.2435 31.2923 18.2203C31.3857 18.1739 31.4692 18.133 31.5428 18.0976C31.6164 18.0622 31.705 18.0495 31.8088 18.0594C32.0511 18.1094 32.2552 18.2683 32.4212 18.5363C32.4829 18.6341 32.4992 18.8605 32.4701 19.2154C32.448 19.5691 32.4108 19.9401 32.3587 20.3284C32.3053 20.7096 32.2721 21.0034 32.2592 21.2097C32.2506 21.3205 32.2546 21.3817 32.2712 21.3932C32.2879 21.4047 32.2982 21.421 32.3021 21.4421C32.2869 21.5177 32.2775 21.585 32.2738 21.6439C32.2702 21.7029 32.2678 21.7689 32.2667 21.8419C32.2593 21.9598 32.2661 22.1151 32.2871 22.3078C32.3082 22.5006 32.3431 22.6507 32.3921 22.7582C32.5317 22.7251 32.61 22.6961 32.6273 22.6711C32.6388 22.6544 32.6551 22.6441 32.6762 22.6402C32.7299 22.6157 32.7751 22.6037 32.8116 22.6043C32.8481 22.6048 32.8932 22.5929 32.947 22.5684C33.2214 22.4376 33.4534 22.2346 33.6429 21.9593C33.7592 21.8795 33.8686 21.8011 33.9708 21.724C34.0802 21.6455 34.1825 21.5684 34.2777 21.4925C34.4489 21.3153 34.5885 21.1839 34.6965 21.0985C34.8045 21.013 34.9679 20.8918 35.1865 20.7349C35.2586 20.6124 35.3656 20.5016 35.5075 20.4026C35.6367 20.3132 35.7577 20.1998 35.8707 20.0624C35.9052 20.0124 35.9333 19.9672 35.9549 19.9267C35.9868 19.8626 36.0271 19.8442 36.0758 19.8717C36.1593 19.9291 36.2187 19.9946 36.2541 20.0681C36.2895 20.1417 36.3028 20.1939 36.2939 20.2246C36.2078 20.3498 36.1635 20.4453 36.1611 20.5113C36.1588 20.5773 36.149 20.6228 36.1317 20.6478C36.0743 20.7313 35.9804 20.8141 35.8499 20.8965C35.7393 20.9679 35.6738 21.0273 35.6534 21.0748C35.633 21.1222 35.6143 21.1585 35.597 21.1835C35.5626 21.2335 35.5297 21.2724 35.4984 21.3C35.4671 21.3276 35.4342 21.3665 35.3997 21.4165C35.3793 21.464 35.3452 21.4958 35.2972 21.5119L35.1657 21.569C35.0942 21.655 35.0355 21.7314 34.9895 21.7981C34.9436 21.8648 34.8919 21.9399 34.8345 22.0233C34.7483 22.1485 34.6928 22.2425 34.668 22.3053C34.649 22.3598 34.5838 22.441 34.4727 22.5489L34.0969 22.8804C33.9179 23.0154 33.7428 23.1716 33.5716 23.3488C33.4005 23.5261 33.2293 23.7033 33.0581 23.8805C32.9456 23.9814 32.8149 24.082 32.6659 24.1823C32.5297 24.273 32.406 24.3723 32.2949 24.4802C32.2315 24.4919 32.1921 24.4955 32.1767 24.4911C32.153 24.4809 32.1162 24.4986 32.0664 24.5442C31.9894 24.522 31.9184 24.5315 31.8531 24.5727C31.7822 24.6222 31.7124 24.6387 31.6438 24.6222C31.563 24.5789 31.4947 24.5442 31.4389 24.518C31.3901 24.4906 31.3504 24.4725 31.3196 24.4636C31.2721 24.4432 31.2269 24.4152 31.1839 24.3794C31.1427 24.3142 31.1179 24.2387 31.1093 24.1529C31.1008 24.067 31.0701 23.9999 31.0175 23.9513C30.9603 23.6415 30.9163 23.3437 30.8854 23.0581C30.8545 22.7725 30.8457 22.4683 30.8589 22.1454C30.8548 22.0442 30.8588 21.8687 30.871 21.6189C30.8818 21.362 30.8841 21.1176 30.8777 20.8857C30.8713 20.6539 30.8367 20.5256 30.7738 20.5007C30.6345 20.6138 30.4994 20.7699 30.3687 20.9688C30.3068 21.0676 30.2436 21.1594 30.1792 21.2441C30.1147 21.3288 30.0524 21.4058 29.9924 21.4752L29.7078 21.768C29.665 21.8123 29.6194 21.8608 29.5708 21.9135C29.521 21.9591 29.4718 22.0082 29.4233 22.0609C29.3377 22.1495 29.2661 22.2355 29.2087 22.3189C29.1513 22.4024 29.0894 22.5012 29.0231 22.6154C28.9829 22.6738 28.9427 22.7322 28.9025 22.7906C28.8681 22.8406 28.8343 22.8942 28.8011 22.9513C28.7335 23.0584 28.6511 23.1647 28.5541 23.27C28.4966 23.3534 28.4523 23.4089 28.421 23.4366C28.3896 23.4642 28.351 23.5114 28.3051 23.5781L28.1414 23.8159C28.0897 23.8909 28.0185 23.9587 27.9277 24.0192C27.7582 24.3636 27.5586 24.7026 27.3289 25.0363C27.1063 25.3687 26.9406 25.6943 26.8319 26.0129C26.6889 26.1849 26.5321 26.3413 26.3614 26.4821C26.1908 26.6228 25.9638 26.6756 25.6806 26.6405C25.5242 26.582 25.4196 26.5285 25.367 26.4799C25.3156 26.4384 25.2585 26.4053 25.1957 26.3805C25.1812 26.2229 25.168 26.0724 25.156 25.929C25.1441 25.7855 25.1591 25.6298 25.2009 25.4619L25.2887 25.2272C25.337 25.0945 25.3568 24.9452 25.348 24.7793C25.338 24.6064 25.3564 24.4501 25.4035 24.3103C25.462 24.1539 25.4933 24.0279 25.4976 23.9325C25.5031 23.844 25.5198 23.7572 25.5478 23.6719C25.5674 23.5809 25.5938 23.5069 25.6269 23.4498C25.6601 23.3927 25.6865 23.3186 25.7061 23.2276C25.727 23.1437 25.7614 23.0536 25.8091 22.9574C25.8569 22.8611 25.8913 22.7711 25.9122 22.6871C25.9408 22.3687 25.9963 22.038 26.0786 21.6951C26.0886 21.5913 26.0992 21.491 26.1105 21.3943C26.1218 21.2975 26.1407 21.203 26.1674 21.1107C26.1883 21.0267 26.2092 20.9427 26.2301 20.8588C26.2511 20.7748 26.2726 20.6944 26.2948 20.6174C26.3157 20.5335 26.3373 20.453 26.3595 20.3761C26.3804 20.2921 26.4013 20.2082 26.4223 20.1242C26.4489 20.0319 26.474 19.9508 26.4975 19.8809C26.521 19.811 26.5545 19.7357 26.5978 19.6549C26.6124 19.6157 26.6271 19.5766 26.6417 19.5375C26.6563 19.4984 26.6674 19.4599 26.675 19.4221C26.6826 19.3843 26.6937 19.3459 26.7083 19.3067C26.723 19.2676 26.7376 19.2285 26.7522 19.1894C26.7668 19.1503 26.7815 19.1112 26.7961 19.0721C26.8094 19.0259 26.8186 18.9769 26.8236 18.925C26.8348 18.8282 26.8714 18.7305 26.9333 18.6317C26.9722 18.5662 27.0047 18.5056 27.0308 18.4498C27.0626 18.3857 27.0881 18.3263 27.1072 18.2718C27.1396 18.1712 27.2194 18.0909 27.3467 18.031C27.4769 18.0652 27.5962 18.0214 27.7048 17.8994C27.8191 17.769 27.9295 17.7559 28.0361 17.8601C28.2567 17.9504 28.4087 18.0243 28.4922 18.0817C28.591 18.1436 28.6616 18.2107 28.7041 18.2829C28.7979 18.3967 28.829 18.5257 28.7974 18.6699C28.7657 18.8141 28.6886 18.9485 28.5659 19.0731C28.5569 19.3005 28.4999 19.5441 28.3949 19.8038C28.344 19.9224 28.2966 20.0404 28.2527 20.1577C28.2075 20.268 28.1659 20.3777 28.1277 20.4867L28.0367 20.9404C27.9886 21.1532 27.9369 21.3666 27.8818 21.5807C27.8266 21.7948 27.7596 22.0038 27.6807 22.2077C27.6243 22.4148 27.5766 22.551 27.5377 22.6165C27.5058 22.6806 27.4775 22.7441 27.4527 22.8069C27.4336 22.8614 27.4036 22.9944 27.3625 23.2059Z" fill="white"/>
<path d="M39.6759 11.5606C39.9949 11.5527 40.2683 11.535 40.4963 11.5075C40.7313 11.4787 40.9816 11.4143 41.2471 11.3143L42.0602 11.044C42.2804 10.9743 42.5457 10.8925 42.8561 10.7988C42.9393 10.7762 43.0273 10.7599 43.1202 10.7501C43.1708 10.748 43.2179 10.7466 43.2614 10.7459C43.3037 10.7381 43.3459 10.7303 43.3882 10.7225C43.5713 10.6887 43.7496 10.6485 43.923 10.6019C44.0965 10.5553 44.2594 10.5107 44.4117 10.468C44.4386 10.4557 44.4619 10.4442 44.4818 10.4332C44.5086 10.421 44.532 10.4094 44.5518 10.3984C44.5915 10.3766 44.6337 10.3688 44.6786 10.375C44.742 10.3633 44.8053 10.3516 44.8687 10.3399C44.9321 10.3282 44.9948 10.313 45.0569 10.2943C45.1824 10.2638 45.3035 10.2888 45.4203 10.3692C45.4886 10.5023 45.5169 10.5771 45.5055 10.5938C45.4882 10.6188 45.478 10.6426 45.4749 10.665C45.4946 10.8507 45.4869 10.9468 45.4517 10.9533C45.4164 10.9598 45.4014 10.9771 45.4066 11.0053C45.2992 11.0543 45.2086 11.0965 45.1351 11.1319C45.0615 11.1673 45.0101 11.2242 44.9808 11.3024C44.7505 11.3959 44.5306 11.4474 44.3212 11.4569C44.1104 11.4594 43.9085 11.5294 43.7155 11.667C43.6189 11.7358 43.5265 11.8075 43.4384 11.882C43.3515 11.9636 43.2218 11.9912 43.0494 11.9647C42.9086 11.9907 42.7479 12.0277 42.5674 12.0756C42.3869 12.1234 42.2134 12.17 42.047 12.2153C41.8115 12.2806 41.5449 12.3553 41.2473 12.4394C40.9554 12.5151 40.7291 12.5714 40.5684 12.6084C40.4148 12.644 40.1949 12.6955 39.9088 12.7629C39.6226 12.8303 39.3669 12.8848 39.1415 12.9264C39.0457 13.0387 38.9939 13.1721 38.986 13.3265C38.9767 13.4738 38.9236 13.6002 38.8265 13.7055C38.7517 14.0106 38.6933 14.2071 38.6513 14.2949C38.6035 14.3911 38.5744 14.5094 38.5639 14.6497C38.4135 14.9396 38.2826 15.2369 38.1713 15.5414C38.0702 15.8223 37.9311 16.1138 37.7538 16.4159C37.7542 16.5761 37.7268 16.7231 37.6714 16.8572C37.6218 16.9828 37.5982 17.151 37.6007 17.3618C37.4892 17.5863 37.4194 17.8395 37.3913 18.1214C37.3795 18.2546 37.3613 18.3927 37.3367 18.5356C37.3192 18.6772 37.2952 18.8237 37.2649 18.9749C37.2575 19.0928 37.2459 19.2078 37.2302 19.3199C37.2145 19.4321 37.1959 19.5484 37.1745 19.6689C37.1486 19.8047 37.1057 19.9474 37.0459 20.0968C37.0211 20.1596 36.9941 20.2301 36.9648 20.3084C36.9413 20.3783 36.9184 20.4517 36.8962 20.5286C36.8732 20.5619 36.8663 20.6033 36.8754 20.6526C36.8819 20.6878 36.882 20.7278 36.8757 20.7727C36.8637 20.8259 36.8517 20.8791 36.8396 20.9323C36.8263 20.9784 36.8123 21.0211 36.7977 21.0602C36.7786 21.1147 36.7571 21.1951 36.733 21.3015C36.721 21.3547 36.717 21.4319 36.7211 21.5331C36.7253 21.6343 36.7213 21.7115 36.7093 21.7647C36.7061 21.7871 36.703 21.8095 36.6998 21.832C36.6967 21.8544 36.6929 21.8733 36.6885 21.8887C36.684 21.9041 36.6802 21.923 36.6771 21.9454C36.6739 21.9678 36.6708 21.9903 36.6677 22.0127C36.6618 22.2177 36.6865 22.3515 36.7418 22.4141C36.797 22.4767 36.8452 22.5407 36.8864 22.6059C36.9083 22.6455 36.9295 22.6817 36.9501 22.7143C36.9707 22.7469 36.9913 22.7795 37.0118 22.8121C37.0588 22.869 37.0922 22.932 37.1123 23.0011C37.1501 23.0087 37.1879 23.0163 37.2257 23.0239C37.2635 23.0315 37.2978 23.0397 37.3286 23.0486C37.3901 23.0664 37.4596 23.0681 37.5371 23.0538C37.6313 23.051 37.7157 22.9954 37.7903 22.8869C37.8707 22.7701 37.9455 22.7017 38.0146 22.6817C38.0939 22.6379 38.1864 22.6063 38.292 22.5868C38.3836 22.5699 38.4607 22.5338 38.5233 22.4785C38.559 22.4355 38.5913 22.3932 38.62 22.3514C38.6487 22.3097 38.6739 22.2687 38.6956 22.2283C38.7261 22.1571 38.7945 22.0935 38.9007 22.0375C39.1156 21.9395 39.2269 21.8717 39.2345 21.8338C39.2363 21.8044 39.2759 21.7425 39.3531 21.6481C39.3959 21.6038 39.4352 21.5601 39.471 21.5171C39.5138 21.4728 39.5502 21.4333 39.5802 21.3986C39.6274 21.3389 39.7101 21.2545 39.8283 21.1453C39.9562 21.0489 40.0294 20.9916 40.0479 20.9737C40.0664 20.9557 40.1172 20.8953 40.2002 20.7926C40.2641 20.7444 40.321 20.6975 40.3708 20.6519C40.4264 20.5979 40.475 20.5453 40.5165 20.4939C40.5809 20.4092 40.6793 20.3109 40.8116 20.1991C40.9676 20.0975 41.0514 20.0384 41.0629 20.0217C41.0801 19.9966 41.0896 19.9694 41.0915 19.9399C41.0933 19.9105 41.1597 19.8363 41.2907 19.7174C41.3205 19.6027 41.367 19.4995 41.4302 19.4077C41.4589 19.366 41.4905 19.3201 41.5249 19.27C41.5581 19.2129 41.5941 19.1517 41.633 19.0862C41.7051 18.9637 41.7775 18.8629 41.8503 18.784C41.9346 18.6883 42.0026 18.6029 42.0543 18.5278C42.0786 18.5015 42.1079 18.4633 42.1424 18.4133C42.1768 18.3632 42.2216 18.3295 42.2766 18.312C42.3124 18.269 42.3417 18.2308 42.3647 18.1974C42.3947 18.1628 42.4212 18.1288 42.4442 18.0954C42.4671 18.062 42.493 18.0245 42.5217 17.9828C42.5575 17.9398 42.599 17.8884 42.6462 17.8287L42.7323 17.7036C42.7725 17.6452 42.8025 17.6105 42.8224 17.5996C42.8858 17.5879 42.9354 17.6005 42.9714 17.6376C43.0144 17.6733 43.0641 17.686 43.1204 17.6756C43.1303 17.7685 43.1369 17.8437 43.1403 17.9014C43.1507 17.9577 43.1584 18 43.1636 18.0281C43.174 18.0845 43.1697 18.1399 43.1506 18.1944C43.0908 18.3438 43.0088 18.4318 42.9044 18.4583C42.8014 18.4919 42.7347 18.5843 42.7043 18.7356C42.6569 18.7152 42.6028 18.7179 42.542 18.7437C42.4812 18.7695 42.4393 18.799 42.4164 18.8324C42.4536 18.8765 42.4768 18.9232 42.4859 18.9725C42.4911 19.0007 42.5073 19.0487 42.5343 19.1165C42.3219 19.4252 42.1905 19.6606 42.1404 19.8228C41.9981 20.0384 41.9254 20.1574 41.9223 20.1798L41.907 20.2154L41.7692 20.4156C41.6006 20.607 41.48 20.7822 41.4074 20.9412C41.3405 21.0919 41.216 21.246 41.0339 21.4034C40.8998 21.5447 40.8097 21.6487 40.7638 21.7154C40.7408 21.7488 40.7121 21.7905 40.6776 21.8406C40.6419 21.8836 40.6004 21.9349 40.5531 21.9946C40.5244 22.0363 40.4827 22.1059 40.4278 22.2034C40.373 22.301 40.3242 22.3719 40.2814 22.4162C40.2028 22.5035 40.1195 22.5844 40.0313 22.659C39.9616 22.7155 39.8936 22.8009 39.8273 22.9151C39.64 23.0443 39.5094 23.185 39.4355 23.337C39.366 23.4736 39.2508 23.6187 39.0898 23.7722C38.9786 23.8801 38.8256 24.0176 38.6306 24.1846C38.4357 24.3517 38.266 24.4777 38.1215 24.5626C38.1016 24.5736 38.0818 24.5845 38.062 24.5955C38.0422 24.6064 38.0258 24.6167 38.0131 24.6263C38.0003 24.636 37.984 24.6463 37.9641 24.6572C37.9443 24.6682 37.9245 24.6791 37.9047 24.6901C37.779 24.6404 37.6568 24.5901 37.5382 24.5392C37.4195 24.4883 37.3133 24.406 37.2195 24.2922C37.0675 24.2183 36.9524 24.1667 36.8741 24.1375C36.7805 24.1038 36.6962 24.0611 36.6211 24.0094C36.5286 23.9027 36.4325 23.7966 36.333 23.6912C36.2334 23.5857 36.1268 23.4816 36.0132 23.3788C35.7846 23.1661 35.5978 22.9238 35.453 22.652C35.4254 22.6207 35.3967 22.5641 35.367 22.4822L35.2983 22.2873C35.2738 22.2336 35.25 22.1833 35.2268 22.1366C35.2036 22.0899 35.1811 22.0468 35.1592 22.0071C35.118 21.9419 35.0915 21.8375 35.0795 21.6941C35.0613 21.5955 35.0585 21.5013 35.0711 21.4116C35.0761 21.3597 35.0811 21.3078 35.0861 21.2559C35.0897 21.197 35.0934 21.1381 35.0971 21.0791C35.1084 20.9824 35.1238 20.8885 35.1434 20.7975C35.1618 20.6994 35.1807 20.6049 35.2003 20.5139C35.2498 20.3081 35.2758 20.114 35.2785 19.9314C35.3084 19.62 35.348 19.3215 35.3972 19.0356C35.4092 18.9824 35.4145 18.9123 35.413 18.8252C35.4083 18.7605 35.4386 18.7076 35.5038 18.6664C35.5082 18.3743 35.5497 18.0863 35.6283 17.8023C35.707 17.5183 35.7876 17.2449 35.8702 16.9821C35.9204 16.8199 35.967 16.6583 36.0101 16.4974C36.052 16.3295 36.0938 16.1616 36.1356 15.9936C36.1775 15.8257 36.2199 15.6613 36.2631 15.5004C36.3049 15.3325 36.3509 15.1674 36.401 15.0052C36.3795 14.849 36.4098 14.6977 36.4921 14.5515C36.4731 14.4093 36.5015 14.2475 36.5773 14.066C36.653 13.8846 36.6955 13.7201 36.7047 13.5728C36.5419 13.5591 36.3688 13.5875 36.1851 13.6578C36.0015 13.7281 35.8418 13.7903 35.7062 13.8445C35.4539 13.8983 35.1863 13.9477 34.9033 13.9927C34.8527 13.9947 34.8021 13.9968 34.7515 13.9989C34.7067 13.9926 34.6589 13.9905 34.6083 13.9925C34.5129 13.9883 34.4229 13.994 34.3384 14.0096C34.2129 14.04 34.1159 14.047 34.0473 14.0305C33.9704 14.0083 33.9029 14.0171 33.8447 14.057C33.6163 13.9244 33.3883 13.8135 33.1606 13.7245C32.926 13.6367 32.7587 13.5001 32.659 13.3146C32.6512 13.2723 32.6658 13.2332 32.7028 13.1972C32.7514 13.1446 32.7814 13.1099 32.7929 13.0932C32.9061 13.0359 33.0309 13.002 33.1673 12.9914C33.3024 12.9737 33.4106 12.9282 33.4917 12.855C33.7012 12.8455 33.9063 12.793 34.1072 12.6977C34.2869 12.6063 34.4837 12.5481 34.6976 12.5232C34.7258 12.518 34.7693 12.5172 34.8283 12.5209C34.8872 12.5246 34.9308 12.5238 34.9589 12.5186C35.0307 12.5127 35.0905 12.5016 35.1385 12.4855C35.1654 12.4733 35.1923 12.461 35.2191 12.4488C35.246 12.4365 35.2764 12.4236 35.3103 12.4101C35.3922 12.3804 35.4838 12.3635 35.585 12.3594C35.6862 12.3553 35.7848 12.3371 35.8808 12.3048C36.0824 12.253 36.3075 12.2297 36.556 12.2348C36.8257 12.236 37.0526 12.1832 37.2368 12.0764C37.2538 11.9713 37.2708 11.8662 37.2879 11.7611C37.3106 11.6476 37.3375 11.5371 37.3686 11.4294C37.4295 11.2069 37.4664 10.9926 37.4793 10.7863C37.5201 10.6914 37.5589 10.5859 37.5957 10.4699C37.6326 10.3538 37.656 10.2439 37.6659 10.1401L37.8042 9.76504C37.8246 9.71758 37.845 9.67013 37.8654 9.62267C37.8857 9.57522 37.9096 9.52711 37.937 9.47836C37.9979 9.25593 38.0361 9.04861 38.0516 8.85641C38.0616 8.75261 38.0716 8.64882 38.0815 8.54502C38.0973 8.43289 38.1158 8.31658 38.1373 8.1961C38.2107 8.08061 38.2821 7.95455 38.3515 7.81793C38.421 7.68131 38.4885 7.53412 38.554 7.37637C38.6623 7.37096 38.7381 7.32784 38.7814 7.24701C38.8318 7.16489 38.9281 7.15438 39.0705 7.2155C39.0783 7.25775 39.1031 7.29324 39.1448 7.32195C39.1865 7.35066 39.1998 7.40283 39.1846 7.47845C39.3514 7.59331 39.4664 7.70317 39.5294 7.80805C39.5784 7.91553 39.5919 8.04777 39.5699 8.20476C39.5479 8.36175 39.5838 8.49713 39.6776 8.6109C39.7175 8.66908 39.7369 8.73468 39.7358 8.80771C39.736 8.88778 39.7541 8.94634 39.7901 8.98339C39.8396 9.05436 39.8913 9.11764 39.9453 9.17322C40.0076 9.23455 40.0491 9.32155 40.0699 9.43423C40.0777 9.47648 40.0769 9.53125 40.0675 9.59853C40.058 9.66582 40.0457 9.73727 40.0306 9.81289C40.0203 10.0333 40.0053 10.189 39.9857 10.28C39.9794 10.3248 39.9738 10.3732 39.9688 10.4251C39.9625 10.47 39.9569 10.5183 39.9519 10.5702C39.8754 10.7081 39.8398 10.7912 39.845 10.8194C39.8489 10.8405 39.8477 10.8735 39.8414 10.9183C39.828 10.9645 39.816 11.0177 39.8053 11.0779C39.7933 11.1311 39.7784 11.1885 39.7606 11.25C39.7428 11.3116 39.7279 11.3689 39.7159 11.4221C39.7039 11.4753 39.6905 11.5215 39.6759 11.5606Z" fill="white"/>
<path d="M48.9059 14.576C48.8868 14.6304 48.8882 14.6775 48.9101 14.7172C48.932 14.7568 48.9334 14.8039 48.9143 14.8584C48.885 14.9366 48.8589 14.9924 48.836 15.0258C48.7958 15.0842 48.7639 15.1483 48.7404 15.2182C48.6939 15.3215 48.6628 15.4292 48.6471 15.5413C48.6332 15.624 48.5841 15.7131 48.4998 15.8088L48.042 15.9916C47.9672 16.02 47.8923 16.0484 47.8174 16.0768C47.7426 16.1052 47.6706 16.1294 47.6014 16.1494C47.5381 16.1611 47.4683 16.1776 47.3921 16.199C47.3146 16.2133 47.2308 16.2324 47.1405 16.2563C46.9319 16.3094 46.7686 16.3323 46.6507 16.3249C46.579 16.3309 46.5185 16.3384 46.4692 16.3475C46.4256 16.3482 46.3933 16.3506 46.3721 16.3545L46.2454 16.3779C46.0271 16.4182 45.8098 16.4838 45.5935 16.5746C45.3772 16.6655 45.1529 16.7324 44.9205 16.7753C44.8417 16.7826 44.763 16.7898 44.6842 16.7971C44.6125 16.8031 44.5372 16.8097 44.4585 16.8169C44.3867 16.8229 44.3058 16.8378 44.2155 16.8618C44.131 16.8774 44.0407 16.9013 43.9447 16.9336C43.795 16.9904 43.6984 17.0191 43.6548 17.0199C43.6253 17.018 43.5837 17.0294 43.53 17.0538L43.3351 17.1226C43.2532 17.1523 43.1953 17.1739 43.1614 17.1874C43.0962 17.2286 43.0204 17.2717 42.934 17.3168C42.8477 17.3618 42.7609 17.3851 42.6738 17.3867C42.6245 17.3958 42.5832 17.3888 42.5498 17.3658C42.5332 17.3544 42.5094 17.3442 42.4787 17.3353C42.4549 17.3251 42.4277 17.3156 42.3969 17.3067C42.3437 17.2947 42.2723 17.2824 42.1826 17.2698C42.1223 17.2591 42.0694 17.2288 42.0238 17.1789C42.035 17.0822 42.0354 16.9656 42.0248 16.8292C42.0141 16.6928 42.0528 16.5473 42.1408 16.3927C42.1638 16.3593 42.1925 16.3176 42.227 16.2675C42.2614 16.2175 42.2946 16.1604 42.3264 16.0962L42.4134 15.9163C42.4395 15.8605 42.4768 15.8063 42.5254 15.7537C42.5708 15.7234 42.6344 15.6935 42.7163 15.6638C42.7841 15.6367 42.8465 15.5997 42.9034 15.5528C43.0072 15.5628 43.1247 15.5484 43.2559 15.5096C43.373 15.4734 43.4649 15.4783 43.5317 15.5242C43.7218 15.4891 43.9258 15.4697 44.1436 15.4659C44.3402 15.466 44.5499 15.4382 44.7727 15.3826C44.9135 15.3566 45.0489 15.3206 45.1788 15.2748C45.2466 15.2477 45.3151 15.2242 45.3842 15.2041C45.4604 15.1828 45.5401 15.1608 45.6233 15.1382L46.3628 15.0017C46.4191 14.9913 46.4754 14.9809 46.5318 14.9705C46.5939 14.9517 46.6524 14.9336 46.7075 14.9162C46.7625 14.8987 46.8217 14.8842 46.8851 14.8725C46.9472 14.8537 47.0099 14.8385 47.0733 14.8268C47.2115 14.7867 47.3319 14.7682 47.4344 14.7711C47.558 14.7701 47.6727 14.7599 47.7783 14.7404C47.8333 14.7229 47.8919 14.7048 47.954 14.6861C48.0218 14.659 48.0903 14.6355 48.1594 14.6154C48.3034 14.567 48.4388 14.5311 48.5655 14.5077C48.6034 14.5153 48.637 14.52 48.6665 14.5218C48.703 14.5224 48.736 14.5236 48.7654 14.5254C48.8244 14.5291 48.8712 14.5459 48.9059 14.576Z" fill="white"/>
<path d="M49.7557 16.9315C49.8382 16.8653 49.9314 16.7389 50.0353 16.5522C50.1379 16.3585 50.2383 16.1725 50.3365 15.9941C50.4333 15.8088 50.5115 15.6997 50.571 15.6668C50.6002 15.5886 50.6279 15.5216 50.654 15.4658C50.6801 15.41 50.7245 15.3545 50.7871 15.2992C50.8621 15.0742 50.9782 14.8744 51.1353 14.6997C51.2981 14.5167 51.4449 14.3258 51.5757 14.1268C51.6991 14.0458 51.8212 13.9577 51.942 13.8626C52.0699 13.7662 52.1923 13.6598 52.3092 13.5436C52.55 13.3098 52.8388 13.1582 53.1756 13.0887C53.3435 13.1306 53.4988 13.1237 53.6415 13.0683C53.7772 13.0141 53.921 13.024 54.073 13.0979C54.1752 13.2174 54.2535 13.2867 54.308 13.3057C54.3625 13.3248 54.4119 13.3557 54.4562 13.3985C54.5451 13.5642 54.6088 13.6726 54.6473 13.7237C54.6929 13.7736 54.7251 13.8295 54.7439 13.8916C54.7704 13.996 54.7943 14.0862 54.8157 14.1624C54.8357 14.2315 54.8538 14.2901 54.87 14.3381C54.8939 14.4283 54.9101 14.5164 54.9187 14.6022C54.9427 14.9691 54.9386 15.3413 54.9063 15.7187C54.9 15.7635 54.8937 15.8084 54.8875 15.8532C54.8812 15.8981 54.8755 15.9465 54.8705 15.9984C54.8593 16.0951 54.839 16.1826 54.8098 16.2608C54.7288 16.4141 54.675 16.5369 54.6484 16.6292C54.6058 16.7536 54.5736 16.836 54.552 16.8764C54.4831 16.9765 54.4164 17.069 54.3519 17.1537C54.2945 17.2371 54.2393 17.3128 54.1863 17.3809C54.1294 17.4278 54.0732 17.4782 54.0176 17.5322C53.9607 17.5791 53.9045 17.6295 53.8489 17.6835C53.7435 17.783 53.613 17.8654 53.4575 17.9305L53.2888 18.0818C53.2333 18.1357 53.1674 18.1734 53.0912 18.1947C52.9814 18.3097 52.8542 18.4096 52.7096 18.4946C52.6444 18.5357 52.5756 18.5775 52.5034 18.62C52.4382 18.6612 52.3701 18.7065 52.2991 18.756C52.2013 18.8178 52.1188 18.884 52.0517 18.9546C51.9847 19.0253 51.8965 19.0998 51.7871 19.1782C51.7277 19.2111 51.6301 19.2546 51.4944 19.3087C51.3645 19.3546 51.274 19.3968 51.2229 19.4353C51.3193 19.5632 51.38 19.734 51.4049 19.9479C51.4342 20.1464 51.5019 20.316 51.608 20.4566C51.7989 20.4651 52.0055 20.4597 52.2277 20.4405C52.4499 20.4214 52.657 20.3795 52.849 20.3149C52.8829 20.3014 52.9162 20.2843 52.9488 20.2637C52.9884 20.2419 53.0281 20.22 53.0678 20.1981C53.1074 20.1762 53.1471 20.1543 53.1867 20.1324C53.2264 20.1105 53.2667 20.0922 53.3076 20.0773C53.4574 20.0206 53.6023 19.9574 53.7424 19.8879C53.8825 19.8183 54.0024 19.7379 54.102 19.6467C54.4845 19.4304 54.8438 19.1675 55.1799 18.8579C55.516 18.5482 55.7989 18.2266 56.0286 17.8929C56.1768 17.749 56.3348 17.5596 56.5027 17.3247C56.6705 17.0898 56.7952 16.8775 56.8766 16.6877C57.0463 16.4233 57.2005 16.2128 57.339 16.0561C57.4776 15.8995 57.6186 15.8152 57.7621 15.8033C57.8748 15.7825 57.9963 15.8292 58.1266 15.9435C58.2569 16.0578 58.273 16.2042 58.1749 16.3825C58.0566 16.4917 57.9321 16.6458 57.8014 16.8447C57.6776 17.0423 57.5377 17.1919 57.3817 17.2935C57.2763 17.3931 57.1465 17.5773 56.9922 17.8461C56.8423 18.0995 56.715 18.2978 56.6104 18.4409C56.5874 18.4743 56.5616 18.5118 56.5329 18.5535C56.5041 18.5952 56.4684 18.6382 56.4256 18.6826C56.347 18.7699 56.2867 18.8575 56.2447 18.9453C56.0602 19.1687 55.8775 19.3627 55.6967 19.5271C55.614 19.5133 55.5532 19.539 55.5143 19.6045C55.4652 19.6937 55.4193 19.7604 55.3765 19.8047C55.358 19.8227 55.3394 19.8407 55.3209 19.8587C55.3024 19.8766 55.2803 19.8953 55.2548 19.9146C55.2292 19.9338 55.2071 19.9525 55.1886 19.9705C55.1701 19.9885 55.1516 20.0064 55.133 20.0244C55.0386 20.1438 54.9335 20.2652 54.8179 20.3885C54.7023 20.5117 54.5806 20.6216 54.4527 20.718C54.3275 20.8285 54.2009 20.932 54.0731 21.0284C53.9465 21.1319 53.818 21.2248 53.6876 21.3071C53.5571 21.3895 53.4286 21.4824 53.3021 21.5858C53.1825 21.688 53.0643 21.7972 52.9474 21.9135L52.7209 21.988C52.687 22.0016 52.6524 22.0116 52.6172 22.0181C52.5833 22.0317 52.5494 22.0452 52.5154 22.0587C52.4432 22.1012 52.3718 22.1289 52.3014 22.1419C52.231 22.1549 52.1404 22.1571 52.0295 22.1484C51.5413 22.1075 51.1194 21.9523 50.7638 21.6829C50.7138 21.6485 50.6609 21.6182 50.6051 21.5921C50.555 21.5576 50.5021 21.5273 50.4463 21.5012C50.318 21.4375 50.2262 21.3743 50.171 21.3117C50.0881 21.2178 49.9942 21.064 49.8892 20.8503C49.7772 20.638 49.6751 20.4201 49.5829 20.1968C49.4894 19.9665 49.4309 19.7879 49.4075 19.6612C49.4342 19.5689 49.4533 19.416 49.4649 19.2027C49.4752 18.9823 49.4791 18.7668 49.4766 18.556C49.4729 18.3383 49.4632 18.1871 49.4476 18.1026C49.4705 18.0692 49.51 17.9673 49.5659 17.7968C49.6135 17.6205 49.6575 17.4449 49.698 17.2699C49.7443 17.0866 49.7635 16.9738 49.7557 16.9315ZM52.9077 14.9515C52.8325 15.0965 52.756 15.2344 52.6782 15.3653C52.6004 15.4961 52.5072 15.6226 52.3987 15.7446C52.3427 15.9151 52.2701 16.0742 52.1809 16.2217C52.0916 16.3693 52.001 16.5098 51.9091 16.6433C51.8736 16.7664 51.8264 16.8661 51.7677 16.9425C51.709 17.0189 51.6439 17.1001 51.5724 17.1861C51.5094 17.3579 51.424 17.5266 51.3162 17.6922C51.2084 17.8577 51.2101 18.0249 51.3214 18.1937C51.4815 18.1933 51.6326 18.1435 51.7745 18.0445C51.9164 17.9455 52.0386 17.8574 52.1408 17.7803C52.1907 17.7347 52.2412 17.6926 52.2923 17.654C52.3505 17.6141 52.4051 17.5749 52.4563 17.5363C52.5074 17.4978 52.5586 17.4592 52.6097 17.4206C52.6608 17.3821 52.7078 17.3406 52.7506 17.2963L53.1985 16.6456C53.2687 16.5525 53.3364 16.4454 53.4014 16.3242C53.4275 16.2684 53.4536 16.2126 53.4797 16.1568C53.5116 16.0926 53.5434 16.0285 53.5753 15.9643C53.5819 15.8029 53.6116 15.6481 53.6644 15.5C53.7229 15.3436 53.7314 15.1927 53.69 15.0474C53.6713 14.9853 53.633 14.9159 53.5752 14.8392C53.5173 14.7625 53.4803 14.7002 53.4642 14.6522C53.3163 14.6795 53.2117 14.7243 53.1503 14.7866C53.1203 14.8212 53.0826 14.8537 53.0372 14.8839C52.9976 14.9058 52.9544 14.9283 52.9077 14.9515Z" fill="white"/>
<path d="M58.6523 17.4304C58.752 17.3392 58.8266 17.2308 58.8763 17.1051C58.9011 17.0422 58.9294 16.9787 58.9613 16.9146C58.9931 16.8505 59.0285 16.7857 59.0674 16.7202C59.2115 16.4752 59.3762 16.2627 59.5615 16.0829C59.6328 15.9168 59.7359 15.7849 59.8708 15.6871C60.0043 15.5824 60.0991 15.4447 60.155 15.2742C60.1709 15.2421 60.1878 15.1953 60.2056 15.1338C60.2233 15.0722 60.2402 15.0254 60.2561 14.9934C60.4548 14.5707 60.6864 14.2075 60.9507 13.9039C60.9865 13.8609 61.0223 13.8178 61.058 13.7748C61.0938 13.7318 61.126 13.6895 61.1547 13.6477C61.2007 13.581 61.2827 13.493 61.4009 13.3838C61.4578 13.3369 61.5141 13.2865 61.5696 13.2325C61.6239 13.1715 61.674 13.1077 61.72 13.0409C61.8119 12.9074 61.9265 12.7989 62.064 12.7152C62.1478 12.6561 62.2335 12.6075 62.3211 12.5695C62.3608 12.5476 62.4011 12.5292 62.4421 12.5144C62.4888 12.4912 62.5355 12.468 62.5821 12.4448C62.6755 12.3985 62.759 12.3576 62.8326 12.3221C62.9062 12.2867 62.9948 12.274 63.0986 12.284C63.3409 12.3339 63.545 12.4929 63.711 12.7608C63.7727 12.8586 63.789 13.085 63.7599 13.44C63.7378 13.7936 63.7006 14.1646 63.6485 14.5529C63.5951 14.9342 63.5619 15.2279 63.549 15.4342C63.5404 15.5451 63.5444 15.6062 63.5611 15.6177C63.5777 15.6292 63.588 15.6455 63.5919 15.6666C63.5768 15.7423 63.5673 15.8095 63.5636 15.8685C63.56 15.9274 63.5576 15.9934 63.5565 16.0664C63.5491 16.1843 63.5559 16.3396 63.5769 16.5324C63.598 16.7251 63.633 16.8752 63.6819 16.9827C63.8215 16.9497 63.8999 16.9206 63.9171 16.8956C63.9286 16.8789 63.9449 16.8686 63.966 16.8647C64.0197 16.8402 64.0649 16.8283 64.1014 16.8288C64.1379 16.8294 64.183 16.8174 64.2368 16.7929C64.5112 16.6621 64.7432 16.4591 64.9327 16.1838C65.0491 16.1041 65.1584 16.0256 65.2607 15.9485C65.37 15.8701 65.4723 15.7929 65.5675 15.7171C65.7387 15.5398 65.8783 15.4085 65.9863 15.323C66.0943 15.2375 66.2577 15.1163 66.4763 14.9594C66.5484 14.8369 66.6554 14.7261 66.7973 14.6271C66.9265 14.5377 67.0475 14.4243 67.1605 14.287C67.195 14.2369 67.2231 14.1917 67.2447 14.1513C67.2766 14.0871 67.3169 14.0688 67.3657 14.0962C67.4491 14.1536 67.5085 14.2191 67.5439 14.2927C67.5794 14.3662 67.5926 14.4184 67.5837 14.4492C67.4976 14.5743 67.4533 14.6699 67.451 14.7359C67.4486 14.8018 67.4388 14.8473 67.4215 14.8724C67.3641 14.9558 67.2702 15.0387 67.1397 15.121C67.0291 15.1924 66.9636 15.2518 66.9432 15.2993C66.9229 15.3467 66.9041 15.383 66.8868 15.408C66.8524 15.4581 66.8195 15.4969 66.7882 15.5245C66.7569 15.5522 66.724 15.591 66.6895 15.6411C66.6692 15.6885 66.635 15.7203 66.587 15.7364L66.4555 15.7935C66.384 15.8795 66.3253 15.9559 66.2793 16.0226C66.2334 16.0894 66.1817 16.1645 66.1243 16.2479C66.0381 16.373 65.9827 16.467 65.9578 16.5298C65.9388 16.5843 65.8736 16.6655 65.7625 16.7734L65.3867 17.105C65.2077 17.24 65.0326 17.3961 64.8615 17.5733C64.6903 17.7506 64.5191 17.9278 64.3479 18.1051C64.2354 18.2059 64.1047 18.3065 63.9557 18.4069C63.8195 18.4975 63.6958 18.5968 63.5847 18.7047C63.5213 18.7164 63.4819 18.7201 63.4665 18.7156C63.4428 18.7054 63.406 18.7232 63.3562 18.7688C63.2792 18.7466 63.2082 18.756 63.1429 18.7972C63.072 18.8467 63.0022 18.8632 62.9336 18.8468C62.8528 18.8034 62.7845 18.7687 62.7287 18.7426C62.6799 18.7152 62.6402 18.697 62.6094 18.6881C62.5619 18.6678 62.5167 18.6397 62.4737 18.6039C62.4325 18.5387 62.4077 18.4632 62.3991 18.3774C62.3906 18.2916 62.36 18.2244 62.3073 18.1759C62.2501 17.866 62.2061 17.5683 62.1752 17.2827C62.1443 16.9971 62.1355 16.6928 62.1487 16.37C62.1446 16.2688 62.1486 16.0932 62.1608 15.8434C62.1716 15.5865 62.1739 15.3421 62.1675 15.1103C62.1611 14.8784 62.1265 14.7501 62.0636 14.7253C61.9243 14.8384 61.7892 14.9944 61.6585 15.1933C61.5966 15.2921 61.5334 15.3839 61.469 15.4686C61.4045 15.5533 61.3422 15.6304 61.2822 15.6997L60.9976 15.9925C60.9548 16.0369 60.9092 16.0853 60.8606 16.138C60.8108 16.1836 60.7616 16.2327 60.7131 16.2854C60.6275 16.374 60.556 16.46 60.4985 16.5435C60.4411 16.6269 60.3792 16.7257 60.3129 16.8399C60.2727 16.8983 60.2325 16.9567 60.1923 17.0151C60.1579 17.0651 60.1241 17.1187 60.0909 17.1758C60.0233 17.283 59.941 17.3892 59.8439 17.4945C59.7864 17.5779 59.7421 17.6335 59.7108 17.6611C59.6795 17.6887 59.6408 17.7359 59.5949 17.8026L59.4312 18.0404C59.3795 18.1155 59.3083 18.1832 59.2175 18.2437C59.048 18.5881 58.8485 18.9272 58.6188 19.2609C58.3961 19.5933 58.2304 19.9188 58.1217 20.2374C57.9787 20.4095 57.8219 20.5659 57.6512 20.7066C57.4806 20.8473 57.2536 20.9001 56.9704 20.865C56.814 20.8065 56.7094 20.753 56.6568 20.7045C56.6054 20.663 56.5483 20.6298 56.4855 20.605C56.471 20.4474 56.4578 20.297 56.4459 20.1535C56.4339 20.0101 56.4489 19.8544 56.4907 19.6864L56.5785 19.4518C56.6268 19.319 56.6466 19.1697 56.6378 19.0039C56.6278 18.8309 56.6462 18.6746 56.6933 18.5348C56.7518 18.3784 56.7831 18.2524 56.7874 18.157C56.7929 18.0686 56.8096 17.9817 56.8376 17.8965C56.8572 17.8055 56.8836 17.7314 56.9168 17.6743C56.9499 17.6172 56.9763 17.5432 56.9959 17.4522C57.0168 17.3682 57.0512 17.2781 57.099 17.1819C57.1467 17.0857 57.1811 16.9956 57.202 16.9116C57.2306 16.5932 57.2861 16.2625 57.3685 15.9196C57.3784 15.8158 57.389 15.7155 57.4003 15.6188C57.4116 15.522 57.4306 15.4275 57.4572 15.3352C57.4781 15.2512 57.499 15.1673 57.5199 15.0833C57.5409 14.9993 57.5624 14.9189 57.5846 14.842C57.6056 14.758 57.6271 14.6776 57.6493 14.6006C57.6702 14.5167 57.6912 14.4327 57.7121 14.3487C57.7387 14.2564 57.7638 14.1753 57.7873 14.1054C57.8108 14.0356 57.8443 13.9602 57.8876 13.8794C57.9022 13.8403 57.9169 13.8012 57.9315 13.762C57.9461 13.7229 57.9572 13.6845 57.9648 13.6467C57.9724 13.6088 57.9835 13.5704 57.9981 13.5313C58.0128 13.4922 58.0274 13.453 58.042 13.4139C58.0566 13.3748 58.0713 13.3357 58.0859 13.2966C58.0992 13.2504 58.1084 13.2014 58.1134 13.1495C58.1246 13.0528 58.1612 12.955 58.2231 12.8562C58.262 12.7907 58.2945 12.7301 58.3206 12.6743C58.3525 12.6102 58.3779 12.5509 58.397 12.4964C58.4294 12.3957 58.5092 12.3154 58.6365 12.2555C58.7667 12.2898 58.886 12.2459 58.9946 12.1239C59.1089 11.9936 59.2193 11.9805 59.326 12.0846C59.5465 12.1749 59.6985 12.2488 59.782 12.3063C59.8808 12.3681 59.9514 12.4352 59.9939 12.5075C60.0877 12.6212 60.1188 12.7502 60.0872 12.8944C60.0555 13.0386 59.9784 13.173 59.8557 13.2976C59.8467 13.5251 59.7897 13.7686 59.6847 14.0283C59.6338 14.1469 59.5864 14.2649 59.5425 14.3823C59.4973 14.4926 59.4557 14.6022 59.4175 14.7112L59.3265 15.165C59.2784 15.3777 59.2267 15.5912 59.1716 15.8053C59.1164 16.0194 59.0494 16.2284 58.9705 16.4323C58.9141 16.6393 58.8664 16.7755 58.8275 16.841C58.7957 16.9051 58.7673 16.9686 58.7425 17.0315C58.7234 17.0859 58.6934 17.2189 58.6523 17.4304Z" fill="white"/>
<path d="M73.6069 15.4784C73.7055 15.4603 73.7773 15.4543 73.8221 15.4606C73.867 15.4669 73.9035 15.4674 73.9317 15.4622C74.0725 15.4362 74.2339 15.3045 74.4158 15.067C74.6035 14.8212 74.7545 14.6331 74.8688 14.5027C75.1458 14.3861 75.3444 14.1601 75.4646 13.8247C75.5905 13.4811 75.7453 13.1757 75.9291 12.9088C76.1645 12.5668 76.3495 12.2668 76.484 12.0089C76.6242 11.7427 76.7577 11.5979 76.8844 11.5746C76.9971 11.5538 77.0878 11.5916 77.1566 11.6882C77.2434 11.8032 77.3054 11.8828 77.3427 11.9269C77.3197 11.9603 77.3135 12.0051 77.3239 12.0615C77.3356 12.1249 77.3306 12.1768 77.3089 12.2172C77.2885 12.2646 77.2541 12.3147 77.2055 12.3673C77.157 12.42 77.1168 12.4784 77.0849 12.5425L76.9205 12.835C76.7711 13.0519 76.6415 13.3162 76.5315 13.6278C76.4215 13.9394 76.309 14.2369 76.1938 14.5203C76.0843 14.7954 75.9513 15.002 75.7948 15.1402C75.4657 15.4485 75.2132 15.7573 75.0373 16.0665C74.867 16.3674 74.6631 16.6235 74.4253 16.8349C74.3972 16.8401 74.3789 16.8398 74.3706 16.834C74.3622 16.8283 74.351 16.8267 74.3369 16.8293C74.2736 16.841 74.2304 16.8636 74.2074 16.8969C74.1844 16.9303 74.1483 16.9515 74.099 16.9606C73.8202 16.9101 73.5923 16.8393 73.4153 16.7482C73.237 16.65 72.9862 16.4159 72.663 16.0459C72.5801 15.952 72.5024 15.8462 72.4297 15.7285C72.3544 15.5968 72.2753 15.4839 72.1924 15.39L71.8116 14.925C71.7082 14.7985 71.6259 14.5697 71.5648 14.2387C71.5388 14.0978 71.5139 13.884 71.4901 13.5971C71.4662 13.3102 71.4528 13.0796 71.4498 12.9054C71.2718 13.164 71.1211 13.4722 70.9978 13.8299C70.9348 14.0018 70.8747 14.1694 70.8175 14.3329C70.7603 14.4964 70.7018 14.6529 70.642 14.8023C70.4803 15.189 70.3004 15.5754 70.1022 15.9615C69.9085 16.3322 69.8244 16.6063 69.8498 16.7837C69.7809 16.8838 69.7121 17.0239 69.6434 17.2041C69.5747 17.3843 69.5232 17.5394 69.489 17.6695C69.4605 17.7913 69.4663 17.823 69.5065 17.7646C69.3691 18.125 69.1262 18.4065 68.7776 18.6092C68.4291 18.8119 68.0928 18.9431 67.7689 19.0029C67.7042 19.0076 67.6395 19.0123 67.5748 19.0169C67.5101 19.0216 67.4454 19.0262 67.3808 19.0309C67.2597 19.0459 67.1309 19.0187 66.9943 18.9493L66.6345 18.7754C66.3883 18.7043 66.2009 18.5568 66.0722 18.333C65.9435 18.1091 65.8531 17.8564 65.8011 17.5747C65.8953 17.0985 65.924 16.6817 65.8871 16.3244C65.8516 15.9741 65.8696 15.6176 65.941 15.2549C66.042 14.6973 66.2344 14.1812 66.5181 13.7064C66.8019 13.2317 67.1098 12.7889 67.4418 12.378C67.7093 12.0519 68.018 11.6927 68.368 11.3004C68.7237 10.8998 68.973 10.5734 69.1158 10.3213C69.3346 10.2445 69.5124 10.1425 69.6492 10.0153C69.7916 9.87973 69.9354 9.75124 70.0805 9.62979C70.2256 9.50834 70.4073 9.42747 70.6256 9.38717C70.9496 9.32737 71.1501 9.34862 71.2272 9.4509C71.3044 9.55318 71.4175 9.69251 71.5666 9.8689C71.6152 9.6196 71.6421 9.37068 71.6472 9.12214C71.6533 8.99721 71.6635 8.87516 71.6779 8.75598C71.6994 8.6355 71.7257 8.52142 71.7568 8.41372C71.7607 7.96149 71.8193 7.47004 71.9325 6.93937C72.0457 6.40869 72.1661 5.91676 72.2937 5.46355C72.4003 5.09431 72.5066 4.74333 72.6127 4.41061C72.7245 4.06954 72.8008 3.85155 72.8416 3.75664C72.9975 3.37831 73.1808 3.04954 73.3914 2.77034C73.595 2.49244 73.7636 2.20278 73.8973 1.90137C74.007 1.70635 74.1086 1.48734 74.2021 1.24432C74.2987 0.978879 74.3813 0.814359 74.4496 0.750763C74.8635 0.783606 75.0999 0.900193 75.1587 1.10053C75.2175 1.30086 75.271 1.53131 75.3191 1.79188C75.3607 2.01724 75.3811 2.2465 75.3805 2.47966L74.939 4.1123C74.8094 4.51491 74.6917 4.92261 74.5858 5.3354C74.4799 5.7482 74.3859 6.16608 74.3038 6.58906C74.1368 7.14421 73.9335 7.64054 73.6938 8.07803C73.574 8.29677 73.4625 8.52126 73.3593 8.75149C73.2632 8.98042 73.1719 9.21574 73.0855 9.45746C73.0635 9.61445 73.0162 9.77247 72.9436 9.93152C72.9073 10.011 72.8745 10.0899 72.8452 10.1681C72.8147 10.2393 72.7848 10.314 72.7555 10.3923L72.5429 11.3709C72.4792 11.4992 72.4565 11.6126 72.4747 11.7112C72.5145 11.7694 72.539 11.8232 72.5481 11.8725L72.5676 11.9781C72.5793 12.0415 72.591 12.1049 72.6027 12.1682C72.6144 12.2316 72.6226 12.2957 72.6272 12.3603C72.6319 12.425 72.6407 12.4926 72.6537 12.563C72.6654 12.6264 72.6778 12.6933 72.6908 12.7637C72.8234 13.482 72.9815 14.1811 73.1652 14.8609C73.1462 14.9154 73.1386 14.9532 73.1425 14.9743C73.1607 15.0729 73.2324 15.1653 73.3575 15.2514C73.4813 15.3305 73.5645 15.4062 73.6069 15.4784ZM70.6311 10.7188L70.1653 11.1544C70.0662 11.2091 69.9442 11.3372 69.7993 11.5387L69.4317 12.0326L69.0621 12.5159C68.9973 12.7172 68.8921 12.8968 68.7464 13.0548C68.6008 13.2128 68.486 13.3796 68.4019 13.5554C68.2833 13.7811 68.1748 14.0415 68.0763 14.3364C67.9778 14.6313 67.9525 14.869 68.0004 15.0495C67.9886 15.1828 67.972 15.3097 67.9505 15.4302C67.9348 15.5423 67.9143 15.648 67.8889 15.7474C67.8369 15.939 67.8323 16.1511 67.8752 16.3835C67.909 16.5666 67.9864 16.6506 68.1075 16.6356C68.2285 16.6205 68.3172 16.6078 68.3735 16.5974C68.5588 16.4175 68.7429 16.1723 68.9259 15.8618C69.1147 15.543 69.2775 15.2216 69.4143 14.8978C69.5582 14.5727 69.6478 14.3085 69.6832 14.1054C69.7887 13.8091 69.9121 13.4914 70.0534 13.1522C70.1947 12.813 70.363 12.5015 70.5582 12.2179L70.9437 11.2292C70.9513 11.1913 70.9596 11.1571 70.9685 11.1263C70.976 11.0885 70.9843 11.0542 70.9932 11.0234C71.0122 10.9689 71.0146 10.9029 71.0003 10.8255C70.9834 10.7339 70.9396 10.6546 70.869 10.5875C70.8127 10.5979 70.7653 10.6176 70.727 10.6465C70.6886 10.6755 70.6567 10.6996 70.6311 10.7188Z" fill="white"/>
<path d="M70.8205 51.9989C54.5 54 45.3321 46.7015 41.9383 31M41.9383 31L39.7426 42.2939M41.9383 31L50 39" stroke="#EDEDED" stroke-opacity="0.8" stroke-linecap="round"/>
</svg>
