<svg width="45" height="45" viewBox="0 0 45 45" fill="none" xmlns="http://www.w3.org/2000/svg">
<path fill-rule="evenodd" clip-rule="evenodd" d="M22.5 0.499992C34.65 0.499992 44.5 10.35 44.5 22.5C44.5 34.65 34.65 44.5 22.5 44.5C10.35 44.5 0.500015 34.65 0.500015 22.5C0.500015 10.35 10.35 0.499992 22.5 0.499992Z" fill="#3B94FF"/>
<path fill-rule="evenodd" clip-rule="evenodd" d="M22.5 0.499992C10.35 0.499992 0.500015 10.35 0.500015 22.5C0.500015 34.65 10.35 44.5 22.5 44.5C34.65 44.5 44.5 34.65 44.5 22.5C44.5 10.35 34.65 0.499992 22.5 0.499992ZM22.5 -8.13196e-06C25.4554 -0.00412907 28.3824 0.575961 31.1128 1.70691C33.8432 2.83786 36.3232 4.49735 38.41 6.58999C40.5028 8.6768 42.1623 11.1567 43.2933 13.8871C44.4242 16.6176 45.0043 19.5446 45 22.5C45.0042 25.4554 44.4241 28.3824 43.2932 31.1128C42.1622 33.8432 40.5027 36.3232 38.41 38.41C36.3232 40.5027 33.8433 42.1622 31.1128 43.2932C28.3824 44.4241 25.4554 45.0042 22.5 45C19.5446 45.0042 16.6176 44.4242 13.8872 43.2932C11.1567 42.1623 8.67682 40.5027 6.59002 38.41C4.49738 36.3231 2.83788 33.8432 1.70693 31.1128C0.575984 28.3824 -0.00409855 25.4554 2.23858e-05 22.5C-0.00415336 19.5446 0.575904 16.6176 1.70686 13.8872C2.83781 11.1568 4.49734 8.67683 6.59002 6.58999C8.67686 4.49731 11.1568 2.83778 13.8872 1.70683C16.6176 0.57588 19.5447 -0.00418388 22.5 -8.13196e-06Z" fill="#00B6FF" fill-opacity="0.15"/>
<path d="M20.6709 10.2504C18.6051 10.5009 18.3215 10.5635 17.8962 10.8139C17.6734 10.9183 17.4304 10.9809 17.3696 10.9183C17.2481 10.7722 16.519 12.1078 16.5798 12.3583C16.6 12.4417 16.4785 12.5669 16.3165 12.6296C16.0329 12.7548 16.0329 12.8174 16.3165 13.2556C16.4785 13.5269 16.5393 13.7565 16.438 13.7565C16.195 13.7565 15.8304 14.7374 15.7089 15.7183C15.6481 16.1774 15.5063 16.6783 15.3646 16.8243C15.0608 17.2 15.0608 19.3704 15.3646 19.9548C15.5266 20.2469 15.6076 21.6035 15.6076 23.7948C15.6076 27.9478 15.9924 29.7843 17.3089 31.767C18.6051 33.7287 18.9089 33.8956 21.3393 33.8956C23.3848 33.8956 23.4253 33.8956 24.9443 33.0191C25.7747 32.5391 26.6456 31.9548 26.8481 31.7252C27.0304 31.4956 27.2734 31.3496 27.3544 31.3913C27.4355 31.4539 27.881 31.0783 28.3063 30.5983C29.1165 29.68 29.9874 27.7391 29.9874 26.8C29.9874 26.5287 30.0886 26.2783 30.1899 26.2365C30.4937 26.1322 30.838 23.44 30.676 22.3756C30.6152 21.8748 30.4329 21.3948 30.2912 21.3113C30.0886 21.2069 30.0684 20.873 30.2304 19.913C30.6557 17.2626 30.1494 15.8643 27.8 13.193C25.4912 10.5635 23.7494 9.8539 20.6709 10.2504Z" fill="black"/>
</svg>
